<svg xmlns="http://www.w3.org/2000/svg" viewBox="0 0 128 128">
  <rect width="128" height="128" fill="none"/>
  <ellipse cx="64" cy="114" rx="26" ry="8" fill="#1b2934" opacity="0.38"/>
  <path d="M38 30 L50 14 L78 14 L90 30 L84 102 L44 102 Z" fill="#2d3f4d"/>
  <path d="M48 34 L64 22 L80 34 L76 82 L52 82 Z" fill="#78cfff"/>
  <path d="M50 10 L64 0 L78 10 L70 22 L58 22 Z" fill="#c5f4ff"/>
  <circle cx="56" cy="46" r="4" fill="#f3feff"/>
  <circle cx="72" cy="46" r="4" fill="#f3feff"/>
  <path d="M56 60 L64 52 L72 60 L64 72 Z" fill="#d9faff"/>
  <rect x="46" y="82" width="14" height="30" rx="4" fill="#3f6171"/>
  <rect x="68" y="82" width="14" height="30" rx="4" fill="#3f6171"/>
  <path d="M18 64 L36 58 L48 70 L34 82 Z" fill="#a9e8ff"/>
  <path d="M110 64 L92 58 L80 70 L94 82 Z" fill="#a9e8ff"/>
</svg>
